<?xml version="1.0" encoding="UTF-8"?>
<svg xmlns="http://www.w3.org/2000/svg" xmlns:xlink="http://www.w3.org/1999/xlink" width="48px" height="48px" viewBox="0 0 48 48" version="1.1">
<g id="surface1">
<path style=" stroke:none;fill-rule:nonzero;fill:rgb(0%,0%,0%);fill-opacity:1;" d="M 23.964844 47.15625 C 21.09375 47.15625 18.003906 46.511719 18.003906 45.105469 C 18.003906 43.699219 21.09375 43.054688 23.964844 43.054688 C 26.832031 43.054688 29.9375 43.6875 29.9375 45.105469 C 29.9375 46.523438 26.847656 47.15625 23.964844 47.15625 Z M 23.964844 44.03125 C 20.703125 44.03125 19.054688 44.8125 18.980469 45.105469 C 18.90625 45.398438 20.703125 46.179688 23.964844 46.179688 C 27.222656 46.179688 28.875 45.398438 28.957031 45.105469 C 29.042969 44.8125 27.222656 44.03125 23.964844 44.03125 Z M 23.964844 44.03125 "/>
<path style=" stroke:none;fill-rule:nonzero;fill:rgb(0%,0%,0%);fill-opacity:1;" d="M 24.257812 40.890625 C 18.917969 40.890625 13.875 40.316406 10.089844 39.265625 C 4.984375 37.863281 3.910156 36.128906 3.910156 34.929688 C 3.910156 33.734375 4.984375 32 10.089844 30.582031 C 13.875 29.546875 18.90625 28.957031 24.257812 28.957031 C 29.605469 28.957031 34.636719 29.546875 38.425781 30.582031 C 43.53125 32 44.59375 33.722656 44.59375 34.929688 C 44.59375 36.140625 43.53125 37.863281 38.425781 39.28125 C 34.636719 40.316406 29.605469 40.890625 24.257812 40.890625 Z M 24.257812 29.9375 C 19.003906 29.9375 14.058594 30.496094 10.34375 31.523438 C 6.9375 32.464844 4.886719 33.734375 4.886719 34.929688 C 4.886719 36.128906 6.925781 37.386719 10.34375 38.339844 C 14.058594 39.351562 18.992188 39.925781 24.257812 39.925781 C 29.519531 39.925781 34.46875 39.351562 38.167969 38.339844 C 41.585938 37.386719 43.628906 36.117188 43.628906 34.929688 C 43.628906 33.746094 41.585938 32.476562 38.167969 31.523438 C 34.46875 30.496094 29.519531 29.9375 24.257812 29.9375 Z M 24.257812 29.9375 "/>
<path style=" stroke:none;fill-rule:nonzero;fill:rgb(0%,0%,0%);fill-opacity:1;" d="M 35.40625 39.097656 L 14.667969 7.875 L 13.839844 8.40625 L 34.59375 39.640625 Z M 35.40625 39.097656 "/>
<path style=" stroke:none;fill-rule:nonzero;fill:rgb(0%,0%,0%);fill-opacity:1;" d="M 23.964844 30.71875 C 17.855469 30.71875 12.117188 30.058594 7.792969 28.875 C 2.003906 27.273438 0.78125 25.332031 0.78125 23.964844 C 0.78125 22.59375 2.003906 20.664062 7.792969 19.066406 C 12.117188 17.882812 17.867188 17.222656 23.964844 17.222656 C 30.058594 17.222656 35.8125 17.882812 40.148438 19.078125 C 45.9375 20.664062 47.15625 22.621094 47.15625 23.976562 C 47.15625 25.332031 45.9375 27.273438 40.148438 28.875 C 35.824219 30.058594 30.070312 30.71875 23.964844 30.71875 Z M 23.964844 18.199219 C 17.953125 18.199219 12.300781 18.847656 8.050781 20.019531 C 4.117188 21.105469 1.757812 22.582031 1.757812 23.964844 C 1.757812 25.34375 4.117188 26.847656 8.050781 27.921875 C 12.300781 29.09375 17.953125 29.742188 23.964844 29.742188 C 29.972656 29.742188 35.640625 29.09375 39.890625 27.921875 C 43.824219 26.847656 46.179688 25.355469 46.179688 23.964844 C 46.179688 22.570312 43.824219 21.105469 39.890625 20.019531 C 35.640625 18.847656 29.984375 18.199219 23.964844 18.199219 Z M 23.964844 18.199219 "/>
<path style=" stroke:none;fill-rule:nonzero;fill:rgb(0%,0%,0%);fill-opacity:1;" d="M 24.257812 18.980469 C 18.917969 18.980469 13.875 18.40625 10.089844 17.355469 C 4.984375 15.949219 3.910156 14.214844 3.910156 13.007812 C 3.910156 11.796875 4.984375 10.078125 10.089844 8.671875 C 13.875 7.621094 18.90625 7.046875 24.257812 7.046875 C 29.605469 7.046875 34.636719 7.621094 38.425781 8.671875 C 43.53125 10.078125 44.59375 11.8125 44.59375 13.007812 C 44.59375 14.203125 43.53125 15.949219 38.425781 17.355469 C 34.636719 18.40625 29.605469 18.980469 24.257812 18.980469 Z M 24.257812 8.023438 C 19.003906 8.023438 14.058594 8.585938 10.34375 9.613281 C 6.9375 10.550781 4.886719 11.824219 4.886719 13.007812 C 4.886719 14.191406 6.925781 15.476562 10.34375 16.414062 C 14.058594 17.441406 18.992188 18.003906 24.257812 18.003906 C 29.519531 18.003906 34.46875 17.441406 38.167969 16.414062 C 41.585938 15.476562 43.628906 14.203125 43.628906 13.007812 C 43.628906 11.8125 41.585938 10.550781 38.167969 9.613281 C 34.46875 8.585938 29.519531 8.023438 24.257812 8.023438 Z M 24.257812 8.023438 "/>
<path style=" stroke:none;fill-rule:nonzero;fill:rgb(0%,0%,0%);fill-opacity:1;" d="M 23.964844 4.886719 C 21.09375 4.886719 18.003906 4.238281 18.003906 2.832031 C 18.003906 1.429688 21.09375 0.78125 23.964844 0.78125 C 26.832031 0.78125 29.9375 1.429688 29.9375 2.832031 C 29.9375 4.238281 26.847656 4.886719 23.964844 4.886719 Z M 23.964844 1.757812 C 20.703125 1.757812 19.054688 2.539062 18.980469 2.832031 C 18.90625 3.125 20.703125 3.910156 23.964844 3.910156 C 27.222656 3.910156 28.875 3.140625 28.957031 2.832031 C 29.042969 2.527344 27.222656 1.757812 23.964844 1.757812 Z M 23.964844 1.757812 "/>
<path style=" stroke:none;fill-rule:nonzero;fill:rgb(0%,0%,0%);fill-opacity:1;" d="M 23.964844 47.9375 C 10.75 47.9375 0 37.191406 0 23.964844 C 0 10.734375 10.75 0 23.964844 0 C 37.179688 0 47.9375 10.75 47.9375 23.964844 C 47.9375 37.179688 37.191406 47.9375 23.964844 47.9375 Z M 23.964844 0.976562 C 11.285156 0.976562 0.976562 11.285156 0.976562 23.964844 C 0.976562 36.640625 11.285156 46.960938 23.964844 46.960938 C 36.640625 46.960938 46.960938 36.640625 46.960938 23.964844 C 46.960938 11.285156 36.640625 0.976562 23.964844 0.976562 Z M 23.964844 0.976562 "/>
<path style=" stroke:none;fill-rule:nonzero;fill:rgb(0%,0%,0%);fill-opacity:1;" d="M 37.363281 39.195312 C 37.363281 40.488281 36.3125 41.539062 35.015625 41.539062 C 33.722656 41.539062 32.671875 40.488281 32.671875 39.195312 C 32.671875 37.898438 33.722656 36.847656 35.015625 36.847656 C 36.3125 36.847656 37.363281 37.898438 37.363281 39.195312 Z M 37.363281 39.195312 "/>
<path style=" stroke:none;fill-rule:nonzero;fill:rgb(0%,0%,0%);fill-opacity:1;" d="M 16.488281 8.183594 C 16.488281 9.476562 15.4375 10.527344 14.144531 10.527344 C 12.847656 10.527344 11.796875 9.476562 11.796875 8.183594 C 11.796875 6.886719 12.847656 5.839844 14.144531 5.839844 C 15.4375 5.839844 16.488281 6.886719 16.488281 8.183594 Z M 16.488281 8.183594 "/>
</g>
</svg>
